<svg id="Layer_1" data-name="Layer 1" xmlns="http://www.w3.org/2000/svg" xmlns:xlink="http://www.w3.org/1999/xlink" viewBox="0 0 9.12 7.91"><defs><style>.cls-1,.cls-2{stroke:#465656;stroke-miterlimit:10;stroke-width:0.1px;}.cls-1{fill:url(#linear-gradient);}.cls-2{fill:url(#linear-gradient-2);}</style><linearGradient id="linear-gradient" x1="6.61" y1="9.98" x2="4.96" y2="3.32" gradientUnits="userSpaceOnUse"><stop offset="0.02" stop-color="#374949" stop-opacity="0.9"/><stop offset="0.12" stop-color="#386768" stop-opacity="0.92"/><stop offset="0.26" stop-color="#3a8c8e" stop-opacity="0.95"/><stop offset="0.41" stop-color="#3ba9ac" stop-opacity="0.97"/><stop offset="0.54" stop-color="#3cbec2" stop-opacity="0.99"/><stop offset="0.67" stop-color="#3dcbcf"/><stop offset="0.79" stop-color="#3dcfd3"/></linearGradient><linearGradient id="linear-gradient-2" x1="69.58" y1="123.89" x2="67.93" y2="117.22" xlink:href="#linear-gradient"/></defs><title>logo-1-1-1</title><polygon class="cls-1" points="4.35 2.54 3.95 3.21 6.04 6.8 6.81 6.81 4.35 2.54"/><path class="cls-2" d="M73.44,121.41l-.21-.37h0l-.18-.31h0L69,113.65v0l-2.18,3.79.38.71L69,115l3.29,5.71H69.85L68,117.48v0h0l-.38.67h0l-.41.7-.21-.37h0l-.06-.09-.33-.59h0l-1.68,2.92h0l-.38.65h0v0ZM68,118.84l1.09,1.89h-.81l-.68-1.18Zm-1.41.34.89,1.55H65.68Z" transform="translate(-64.41 -113.55)"/></svg>